<mxfile host="app.diagrams.net" modified="2022-09-05T10:05:03.372Z" agent="5.0 (Windows NT 10.0; Win64; x64) AppleWebKit/537.36 (KHTML, like Gecko) Chrome/104.0.0.0 Safari/537.36" etag="7Rp2VLkHylMsO3KaSz3_" version="20.2.7" type="github">
  <diagram id="TRpfbi7JC5m6vswoCxqX" name="Page-1">
    <mxGraphModel dx="1038" dy="521" grid="1" gridSize="10" guides="1" tooltips="1" connect="1" arrows="1" fold="1" page="1" pageScale="1" pageWidth="850" pageHeight="1100" math="0" shadow="0">
      <root>
        <mxCell id="0" />
        <mxCell id="1" parent="0" />
        <mxCell id="zEiVbw1pWRCzabLosEF_-1" value="" style="shape=image;verticalLabelPosition=bottom;labelBackgroundColor=default;verticalAlign=top;aspect=fixed;imageAspect=0;image=data:image/webp,UklGRkA6AABXRUJQVlA4TDQ6AAAv/8F/EDXpX/9v2qVG+t7Xc5ZyLXvf931ff/Ln/v//qHOe5/pe9/e67vu+zqxfslRntW0xxZmaUJGKqSSSOKdtScwmdqiIBDHLBLvGqYhxxC6CnDGOLTVpcYqKfWPMgu1UbNFKUSNGxGTUbAc7JEYy4ogtRSH2QxEKqVRCTXXhOD5ysof0idQEzTzjiJFyaeNGxdibmELC6ZqDYztmobpSGPtExH4IcrDFlprCkbTKk4xZcOwzIrHmRIIpqm0JB5XKnogxUlhFEaods+A4xjabiIgUjhgRk95UwkDaNvGv+V8lQABAttH1uzZdV8y2bZvtbNve3rb/Z9u2bdu2bRu+IEmyJEmSLdWmfncXC7OGh4enhNrr7wcO+gMHYWym4nE/1wIgwAzkgElwED0dB7mzT8w0RotjA/SCf4A7IDKSyQgYgDyYBo+x0/GYO8OoaZgWcA8SACJY4GABWIEb44maYBiQ5lloaj4xE7RV5FEAOGDCeCQTeOVNYGDqHUKwDp7kSWCQZTryCSQChFSAwPt6iBC4BAjxAIHBvocIhR8BQjxAYHDiIRIRfwOEeAAgGx4i8bMBQsr/kQ7vkDPyEMiHh0gIf/IOIMNDJMCvPAPY8BBhpzwJ7DjxEGGnPAmpwd4hZ+RJiA/2DLkjQOAAIT7YK0SNAIGDg5zhEaJHgMABQqrcG8SMAIEDBC73BPKR9+g9KPcCkpEXIWd4ANnIg5A7zEc68h5EDeORjzwH0cN0kBEgpIKBmGE42Mib9B2We4jwQX9zct8hOPIQCeF3ngQGcx4iATzzJDCo9BAhwOZJ4IinHgKcAliehNTnR+LY8wwh8MmbEI9n5OoZwAogCBI4SIinQIhHmAYIBgocKDCD1+DKC4AxwB4scLDADOhBGFgzHHAHWoHj8ICBg4SYOSvgBUI50yGURSyb+B//8fsdQr1jJ7AlX2KiCalmWR0OFoDLHDSwGoGkZTzyVxhHr2oeeS3kg/wbDOjJE4IM8v9Fg7wm7CRB/v/WIK8JZyVD/hdqEJh5pALT3iwy5H/VBoGZRzww7b0P+ecNDQIzj3hg2nsf8o+bGgRmHvHAtHdp8k8bGwRmHqnAtNdJgvzD5gZ5TXg88j9raJDXRDqoPoBukMdEPqg+gG6QtwQZVB9AN8hTEjXI+wwa5CWJHhRgIzDz4MC0dzxqwusHZh4cmPaOR01C6A3MPDgw7R2PmkTzwMyDA9Pe8YjJGcp5/G3/+w7/htG+wwrABfTBO5AIahuAcceS2rkBGaqF/qA04NZoD7Dp2HHMiwaFVqEcBNQGCoAiMAHg3uBpl2nU/hQw+LWAjS7AGdAGIAe0AVtqS8wetIC+cwFxoAHgq62htsQsQwu47JJFOrDIgDh3QKiEjWgR2jPpBRLf/LjgOThUW2K2ouUCwB88fYdZxE9UW2IWo6UKRAN0sPQdfmn4Qhx4UFtidqNlANAIkr7DEeJxjKotMevRkgTBAOqNNwaeIIOD41xtidmQFtAxeUD0HkR8UFtilqQFbLYPAr7zcYUYtSVmTVo6ZlL0f75xeEKR2nKyKC2Oi0y6fs/oDwgpasvJqrQ4Lg/x+f9FpEC15WRZWsCx8R9BefH/zbq01Jvcx/sOs1J23KktJ/vSArrb+XbfYc2oHZuu7O0DKoAfcAK6QBmIRB0fAN3j30wtnyCPv5maB4ZqAdIAC0wifRASRQN3c+XBEn7dd/j9DxPVubASzIDPpxXbRt/h50QK9EAmuHDxCSTQNNoDk0uK8FSONQnKgIyl9B3WB88WVvala31fZtSo+qjGCpqAgMXsOwgA4N1R1RcQ4sekQJJirH2ANQDZzb6DgGxMRV/A3VQ+zNJJtVhBF6Czn30HjylT8wW0+y98I7VYQXo7G9p30CHs2FbzJZOa79JbLdbDiu1o38ER43QsKvkiNPstDAqUYgXJaVvad3BE7Gqf12Ql77N9h4CxSiVWUFpoT/sOvh+cq/iyss/2HYJvKrGCZUBkU/sOHqPiC7iu9NW+w3RbhVjzgbhd7TsIMlR8AR6m1muobfOq2HaYZe07OGsfBV929NXeAxCkECvYrm9b+w7ur+LL5H7aegJGFGIFb6xr38EKsKTgC7DxUQBJEo/1IoC0r30H91fw5QQfbTwDxgqxgkAL23cQIFrjvizso32HrRRiPc3G9h0EaQq+DDOzXjNtA1V4rOdY2b6DQFvBF4D1z77DpfBYQaSV7Tv4BSN03OK+rOabfYc9q/BYZ7GzfQeFHtyXOXyz7/AAhVjXtrN9B7fCfRHVmFmvkbbNq7CJW4Wd7TsY8Qb3ZUO/hIEaHitYtLTjDvfHfRFN+SX8NDzW+SztuMNACffFseaXcIQTHmsH70fYDqiDPGrCPuA9YPb+l8otcV8G+yWpjDzwWEGjxyP89sGcpOuAnZAIbDrGI35O720Y8OG+gEu/JJ4zQmx4miyKQuo0av9vVFocw+DtrJ4ld+C+FPglOSPEhqjJw6eimJGbaFTt8wZSLQO7NE57kqiBe1Dkm32HER54hEKTV8kiJsTeMKEFhQ/Nj1vde0QP3IMi3+w7BK54hFN6ksJZHAOJhBnkBn4eYPEYMQP3oMA3+w6xkcgZHgQAy4OphAFIZ9UUDnEvETtwD4rMrNdI2/rhEf605wCoc+uFSujWIrS/p5HXvnz2kHogGf7Ye9APj7CWx6gPvht7BXLXB1iP+bcH7kGBPyIbMttqeSqunltfFCphihbQAqQ89eq5B+5BgS8SNfC4ankJoAUWQoPJnVNsZzryofD21zcbz/rhcdXyDoAD1IcmEz2Hgk/tjAYZuAcFvtl32A+Pq5ZXKDx3qNFIJhgFwh6BHXy4B0Vm1mukbf3wuGp5hLWXC41GOrvddeRwPAFnE8LrLfDNvsN+eFy1vME4njqYnaNt1Gi9QKpGwni9Rb7Zd9gPj6uWFxjeJvQSicSns8J4gHjOCLHhm32H/fC4anmA+qDBW+RMxw2wM5+cEWLDcWVmbkba1g+Pq5b5fBYMeI5EmCwxnvgt8Ho38zWQgcdVy3gAI5h1v0ze8ATyJQbmQUxr9/qAb9pwUv8Xr3d+PwMbeFy1TAdQLeV2Oc0v5DZOA0kNfYcA2QL0u9YHQg2H98Dr3cwv4f+Cx1XLcADRJS6Xk2Mq4tnnRsLM1Xr2HcwmIcRv5lLfImaDjdxy57eUvkMA7+BuOd0/g/1kKc4duvYdHDXKkotc6Uu2yAv0HRZP4WY5JUWVWZRi9VXr23ewO3gJ1tzoyweqeYC+w7ndLCeQn01Qpq9a576D7YADWHGhD+w56DzVd1hgJX2Hq+SrL4kdgaxcX7XefQfbnQsO1fU5hr58aMvvO5y8ifLSWbU/prla976DY7xtoLJmIcbu+w7ToE516RQ9ajiquVr/voMOpp9W1pxB10N9hwUW0ne4uerSWW5tBc3VBuw72CjC+2hFzQvX907fYYF99B0Cyo6KS+e8diqaq43Yd/AWbRU17+6dvsMi++g7BOVqS6fl+Gqaq83YdxAQ1FLTnGxs7X2HQEdt6RQAQ0XN1YbsOwgAkKumedUKS+87rNhXaekMBCqqmp0kTdl3cPifq2kG7pbed7i/0tKpepqy5qxkjdl3sN27lDSDnfpW3ndY/0ClpfNodc1ZZM3Zd7D7G5Q0g79W3nfYSWnpzONC8w8ZtO8gYAXHKpqLzvRG32GBXfQd1p9GJf5mAOFC8w+ZtO/gukqa3+aNvsMCu+g7BB9Ulk7LZd1ontiofQeFFBXN4KxmFJ7oO9zMKvoOAayrytLZ2ZVmJ0mj9h1847NVNC9m3X2H+6ssnTuf4kpztVn7DmZmrKLZsf+FEVl232Hhi1SWzkTuNFcbtu/gOiqaI157oe9wfpvoO3xPIkHd3FZt2HGH96hS0Nw27YG+w81sou9QVKGwdKocQi41V5t23OETVDSvYtV9hyPG7LhXWDrzuNVcbdpxh4d1U9A8m1X3HUb6p7J0shNxq7nauOMOgyQFzS2ns+h9B+s61hWWjlDuWnO1cccdXrtKQTP4aNF9h5kZqiydLPKuNVebd9zhfRQ0t00b33dYZA99h0KOwjIROt1rrjbvuMOLq2gGYtbcd/gHKucxmMHOveZqA487/CAFza2sed/BjGwVlsljv3Io95qrDTzucG0FzV0LbbnvEFQoLJNIAYhmg/sOkZEB4ThW0NzY9L7DIlvoOxSIu+HLxPEwQpwEmqtNPO6wEKWgGcTbQt9hbdP7DjdXWCaOVrlmqr7DelPsPPtE2YmOiG1kDJ8b6cjROdiBaOO9wJfZ9m2p4bjD2SQVlqzjsK7hfYdFPkjMML3vcAqFVwngJtVM0ncIVkEcMALkCvoAsPjVQCe4oz7usGNG4RUrK4wl9B3WNrzvEOCV4XSrlGkm6Ducq9UtXegDhEMc7bTHHS5R+IYlhBjed1jkm32HtQ3vO1xI4T3CSTLN7vsOT7/ScImWkWPKSiWDaYTzR0qO6wcsfr13T4m+EeIVghxHhMcdBmwK3wAfYQn7DtY2vO/wVIW3jVPLNLvtOzy8OvYF5kIQ8Q9eJo01/5x9wNfFi6M1RxCAn+CE7rjDpQpfAk+yg30Ha5vdd1g8F07Z8RLNLvsOwWDMYQMmPG7mfLW/0IFCWgbz50dpBkTbdqM67jB4pfAlMK4F9x0CKYUfGkExjWYnybLjCqN+U71xl3w3f9WXCaEOhiipgOf0BjQeACYFD063g77D2mb3HfZV+MzgGBrNgPodUS9aQ8CM688b8kHhTFECTybypRnuQVWl0X2Hm9lB3+HpClHvTblJzQ1CFRTqACmdCX3ZWaEOYGy9+w7Wb4lHfTqd5l1OCt0TPVvfvJDMl2oFzbtbb9/hOArLZBEyzes2IT3j9wmpfCnuimteygr6DjNyN7rvcC2FZTITkebjTw0pCcOOs1D5cqqC5i1N7jsssoK+Q4W9BuoRaZ7uQRRgUwjdicaXWRQ097PcvsMzFZbJJDSap9JyN1KE/K8eksSXSESX4ppBng30HdY2ue9wUoVlAqxo6KOBnCmqzgqXxJf745r7fMGe2Frfob7v82dSaO7dUQ+J8F3tKHyJ5Keg+V/Z7XGHV8WXyRoUmhdoooswBKlpAl8yqSto/jmr7TusTOLLpBWBZoC/ry5yJ/hB4MuXD1mEaxbSLaDvsLZC36HJv2766+41F4NqnYTJiQh8WQfX7Fiw2r5DwRdfJsnm7jXfXCth2GeYe18OUtAsUNnsvoNCO75M3uBec/uBmpDMe6Zd+9JYQfOVDO47DP59B++9Gb5MQJRrzcPn000Y1nbtC0C0xDW/zWL3Hcwip7BMBrjWvJp+wo4CsWtfjsI1L2dw32Hw7zsY8V5hmfyJW83NwZ4esCmEu/ZlDlxzt6Xt9bjDQgm+TBxbrjVvawKJNX/LbW17KWgGcvbadzgXvkyEQreamxtyKwqFWLe+DFPQvLW19h066BWWRMQrt5qvZgaJ+QVKt75shWvex1r3HXyawpLIIulS83CwYQaJcG63voBsXPNWgd93WNvYvkPggy+Jo2uAutS8pDn3Ga7QpS8zKGiezlb7DkEzviT2dKu5iyHkzL906YtDTEHzOJbad1jYGl8Sb3OpuSe4MIbwMJe+fGWI+XHN4Lel7js4k8KS2MulZoAxh/BYt76I+nDNoMZS+w7HV1gS73CpGfibgKSZ1KUvQiSu+ee//2F22nc4I74kLkq71HyUQYTju/QlwkFB8wi47XTfQYVzCwGVLjVngR1qEOGpLn1xcCpo/jdW2nfYsxu+JMB3l5qvaxLhji59KQbHuGYhzEr7DjdWWBITudT8CZMIW6dd+rIOrnlHK+07BM8UlsRnXWqO+KEdZApkLn3ZGddcAAAb3XfwLXgMS7nVLCQaRZidsEtf1lXQvKyN9h2CWTyGLq7/kNooEpk03f5Gs4Lm2S1038Ejk3gMN3er+Z5Gkchg4tYXsIFr7mWhfYerKCyJZ7rVvJxRJDJYufUFFOGa57PQvsOb40uiqrtbzacbRSIjG7e+HIFrbtnTPvcdnAdfEmu4/1NKo0is69aXs1WOQRDMfYfpQX1BGqitWxdM4BH2yRHz8EnA0+fqre02+JLYxrXmGxlFCDBufRlDQfOztGY5vPG2XereV6gTunAPqu5bWCiUCfHjr+5ffYeLn+42wkufPmq0Gmv7vIj2w+s417XmSYwiXNa1LwqHwWyoM8txwIxbD4q2BXgmkTJJPrAH1wQRPvvR+mrLSlmhjrFca97ZKMJZXfsyGa75BvqyTLeh8AUM7eJLjFNFEiHYnVBbbf9D4UX4C0fg/qcfoyhLu/Yl4jOuudvf15bluDS+NAMoH6J5H6IIF9RWm5CJ1+GYcK/5EJMIj3LvSyYNBc1ZxHVleX4VkS9b+A/clyzCQ3TV5pjE6xAy3GtubhLhMu59GS1KBc3T6MpyZSpfCjr7Dkz3xK/m0FTbrarwOiJeEmi+s0GEqxF4BZZxzUKcpiyPLyLzpZ/vUEkX4Q001TaWQh3/nUAziNWIlr0NV8Y1i/o1ZXkInS/b+A08E12EYFtTbbvhdVz6owSagYVBgLU0gVfrK/y2Ug1QPVleSOfLOr7TdziILtZyTbUtitfxuxSaI/Ad18YQNqTw6mQFzafpyRLY0fni6PSdvsNBdLGWa6rtEryOt5BoFqqNIVySwqvVFTRvrifLCEc6X4RO3+k7HEQXa7me2ibOx+v4CInmOxlD1+EkXoFVXPMT9GSZwZHOlwcYs17YGPmD6GIt11Pbxgp1NCXR/NE/NYRwWxrvzzLkyiVfTufLA3yn92AQXazlemqbAa8jeSSN5laGkH9NGu+vhmsu0HM2ci+n8+XHfKf1ZBBdrOV6ajsBr+McIs2AZqARhAcTeb+kgub2WrL8RTpfGvlO59EguljL9dT2BryOMak0n2oEyamIvP+sgubxtWTZg86XRr7TeOYQpYt1sJballY42MyjqDQPKzOAcDYy78E6rhmEa8myB50vjbzYd2jKb/kMNuSi8YEimeZOBlC2HZn3oATXvKOWLHvQ+dLImPWSMkZ+dlJ0sQ7WUtv+eB3J5mSaj19KO2EJnfcluOaiCh1Z9qDzpZHv9B3enC7WwVpq64XXcXtCza9M6mYNwv6BDytoPl9Hlj3ofGnkO32HN6eLdbCW2uZT+JUTSs2v1kyRg5vQ+1GiU6hjiI4se9D50sh3+g6vSxdruY7aTumG13EcpS+nPEgr4WWk3r+OaMdSt1p60PnSyJj1kjJGvkOULtZyHbW9QKGOs0l9ee5jdbI7rfeiCiP+bKAHnS+N/AYeRBdruY7anqVQRyWtL//raH289usHp/X+YryOG37rwzVk2YPOl0Z+Q+ygsK1cR20N8TpeRO1LZkZr6qLB50ZC7P1CCnXUiE9Dlj3ofGnkM0gGhW3lOmpzDOo/tt+VuunhqNEio/Z+F4U6gLWGLHvQ+dLIX5ANCtvKNdT2NcNzXON1jEvvyzhlOpiZHOa58DrqaMiyB50vjXyFqEEXa7mG2jZQqANgNfjygrnome1LQ2nwHlTidVygIcsedL408hOiB12s5SYcxjq8iw5fhpUSU3XQ6AeV1qbvQ+7WAEyfZQ+6L4tGQdp3KMTidTiW9Xg1vCSfkqWa6vG+v0Idc9ph36GjH69DKNLl1bx3JqPqvAxITd4PU6gDWFph3+EVC/A6Ir5q86ri3J+nibWBxqeKeiBex9ussO/QIahQRyYtF5orqsGLU8+qGzXvK9QVFt63rmSet3quvppRbeQ4c+/Lieumo85T6D/XjZ3SOn51nrftNbkbr34Vr+MpVth3eIxCHaNEo6x5gS0OdFNvE2D71QPl6qsZxRE3deVL/varRNXxBRELEZe68a/DMe2UvQJ/8DpaF9tg3+ET8Docq6r6JrxcN7dxiRprEIjSB8BAbZmOqvo2fcl0UXXsdKc3u/UPLJyxtKJXwECh3jfZYN/hcngduyrpe+4EYI4irkuFnBrxRksFkHlL6mLvEfJXXXTSztGiRj9oJm3RMIV/Bessf0WlP+JS0AfMLbDvcHgZXsdBCvqyktsnnyquqjEPSccK7gwwQyJ9FEKE2GOPPe+Tu019y6Vj1WQD/pFojOyt3+siPnxeJLhX97sjrm8JC+w7PF+hjonQG9uYwczRTfdiHXV28uBNZzf1vgCEOnbp/MuZg1ttiXol1Cn8eqil9B1OTFrbpAp1dJbrGzGOiL+K7xHcaUmWdtoYgFXq7b7Q5cB81DdP0jqq6u51ityrSD4KZyI5+gOUWY6EIQIdnH2HvWZ+SHe62lphdbQslR5s6oBPCa37aesmLp0k4l0mjRHiGyX6W0X/ykDvcT6y6CX50Zrp6wAHc4xVLPsG2GEgqm+kWMly+6II7ySqr2ofnH2HvXIu1OKEsyuIanuKRPOhohEh/SWHALhE3Ky1F1xTbZkQa6nq06ebPs2SWa/OxsWxXvU85Ih9PiTV919pcvvSUJn0hLTcz0PaB2ffYa/or9gTxulJUFs655geQ9seft7/v/btvm4Imb7CW279WsVzB/Sulq5CUgbL0aKQ+XfkXz5rienByFCqJ5RWOalQ+ODoOtoHZ99hr1gpkwlld6+RkNu7eVAx7wIT46d8ftnKfdSWmOe1XHr9TodUIP79xJ9kJ51BdyyXuQEEUG2zY76kjvbB2XfYS67lJw/ebeOlyert3vRRs9VTW2K+oaV8xUWaHk+VW3qBC5foAG6ROtoHZ99hL1xfy6MavmSiLQtd1Tb7LWbptPIrFLe29B0t+fNdD7wF6sO+eiBXGa3QGLjXObyjiub2wdl32EtVX8Gd7wlShL9vz2CdSSsrmVdN2BkQ5MxhEwLO3vP27ze3ECrkv++xakvM37TMfxuhToiP9PWyvQCm94TbbbghQG24YecJ53SSzKCdwebtPyukHr6vi/sL2T44+w57qS0dG9DSPjj7DnvZBpIRnH2HvSwD2QjOvsNedoF0BGffYS+rQD6Cs++wl02AjODsO+xqKYQO/uDsO+xqKYTZCQdn32FXSyFRI5Hg7DvsaikkPhicfYdd7YScEZx9h70shcS5wdl32MtSSPx2gPYdWgphkPYdWgkB23doHwRv36FlEMh9hxZBYPcd2gHB3ncY9PxNqH2HVV5dOlV5g77DZINxAdcyXn3lmPfXT/20pfUdTvoXxsQF9uYBtnsz8zEepXw4p3bKJnaXvzfUlDrA2UnTBem+g6NE9wkh6yra4wKHoHi39sXRRdfA7U3CBWO8b/fMizu01F1HFRho80oABO++g296yDKv0BVXVbNTj3lSsfSW0Hzak4QHSb3vftv1dx2gqw5wOfO0OwB0cO872LwxeDMmmMknjWuw0HPsz03cHfdAKPYkYSYs7v2ZC/UVCkSTh5LWUd5hrR57VFjAvoNTOnjXi/gupAttjpV8d5oHgpVG009QO5PKY1Q9iHjrSdb8khEoevCtDx8hzoWO6/Wra4A9l5of/AyhUoiKeH72Crax7+DwYeMBrYccscR5Y55U90TQV/qc973vfaKGuru+ZcY24w4BajPN6taDXzYD065M/pTtNr7SDH1bnSrkCrWFQtdzSi8pLS3dse7K27x62t3OAJgfrxmFfRx3WL8WAAHnHiQRKZDAP5s67rABWmp5BuodxSzxuMNTdp5qyR7rr7XPS69Df9ZTpmv5J668An+3X2baGZ42loP1d2zuuMMfrlt6AzB/0z6TSTTv9zxXHtzWgzim3fl3kETfoX861+2blV4AKsAT+zru8Fq45hu78wCg8j1H4lTqO6K0gH0dd/gCXLNQ6NKDozxH+BB3/g1T0Px66zrucPrjuOYnuL0eUc8RXtOlf2Af19zJuo47vKWC5ve49GAWzwF20i79uyeu+STrOu7wlRQ0r+DSg+m8RriP2zzehmsGa9Z13OG+uOYmrj34kMcI7+A2jwh7Bc2z2tZxh6fANdd17cE2HiMcRH7OwOHZtnXc4a1wzdu69iDC3WMMbef6cVvNj2t+omUdd3gMBc1nuPagBn5vER7uPo8fxjUL6ZZ13OHGCpoPcP+Eszy2NXWJ+zx64ZqvblnHHX6JjrN4E0o9RXi2+zzAU1zzml8+JEWWAdl3SFTHorjmEwk8OM5bxxbo7j6PZypodgi7zzIw+w6J6ngDrnklAg829hJhKUEeR4IHXPMx7rIM1L5DmjqmBDe45v0JPJiyyGD03GEcsIhrXsuqjju8rILmeSk8mNlDhK+nyGN6XPMFVnXc4WMUfruI5MlbTeshwuko8ijBNZdLG+Xtp+9wLVxzWxIPdvAQbTXdIIctbarv8AJcM8ijuSUV+Z4hnIQkj+0UNF8p2PoOaxCki/AnSer46oEUbunQ3DQezOcZws1J8kj3wTX3JcnyQjoP1vGdvsPPiZwuwh8mqWOE2BU0/zqNB5fzDGGNeGjyqIVrXpEky0PoPNjGf647ZFWyCNciqePaCpodtDQePM4z/D7RweS3wDUfS5Ll8UVkHtQ2Z72YI/9isgjHIqkj4jeuuc/9aDzYxSskhGKiPIYoaK4kyXIfKg/AVWffgQHBRUQR/ipNHUIprvl/U3kAlj1C4olEeWQnrKAZKJFkOVM+kQcT+A/MJ+eTRAh2AQNNHdfCNQtBVB4ImR4hkZ00UR5fN4TjGtf8EZost6bxYFOA50Mw9xhIECFYnYqmjprIFTR/gsqDCC+PcPQVqfIQDeGahTSiLHem8OCoXXwJ5kEdXG8XsczeRHWsoqD5dmQ//BqKvquoFJJxzaJRqiwz6P+CWw+KwP+JfQpmXrZk0QXvW/hTCm8b71tYKFTOtdowsjo+glt+DbKv9EZ39ASJvmR57IZrXvP5VFl+68Ozwgp+IAfU1q17Ou5BVY6Yk3Z/CCBmkzFES0Zu2q87eBuFzyroNJ/kCcLbkvnXVEFzFjHd1x0MLnzzuoMj3LRfd/DYeNTL0GlexBNU1Sfz70jwgGseX/d1B5f55nUHt9B93cEAUDgTmN3oNI/lBcKjCPN4Ea75MN3XHVzmm9cd3EL3dQf3VrnIDMIlW+QBwrUI85ge1zyz7usOLjMSNhFuofu6g8fH40puSKh5Tw8QXkiYRwmu+eNpfdcdLBu+eO2hLXRfd/BheFxLUWpu4wHCFQjzGEdB84Sarzu4zB/JHbqvO3hmPK6zKDW/xwN8iDKP7RTqWFfzdQeX+SJRQ/N1B6cVnh9ECaUHG1bpw8g/8E33weu4q+brDi7zQ6KH5usOfodC1P1JPVhDI0b+gW8tvI5dNV93cJkPEjM0X3fwvRWifhipBzMaT3gAaR5b4HXcVPN1B5cZScosYofm6w6+GI/642lSD84wnj7FpHkM0XzC/LfAPSjzzesObqH5uoNX1HzyttsZB33zGDJ+W6GOVyJZku9dUOab9x2mheb7DnMsHnUdYg+uZTgheKv7jOnvoPe+w5T55n2HaaH3vsOMoRD1Q4g9ELINJ9yYOI/r4HWcoPe+wxxtJClzkA+99x1mFYWoTyP2IOKp4RScQpzHXHgdjhG99x3maL+EG3cRcoW81q3Lu0hmCWkdH8Gjbkkd9QfNJpyZOo//hNdx6FcPSZnlj3RBZnlrIcMreF3L0/Gox6au43sfAEdGE36S2tOmCnXUSFRrvsFI6p/rv8LWGxlNuCS1B0cm8Tp+0Xq496EK3brkdaxvNFX01yKyFF5HK9shnk1c5fBO5HU0NZnwn9F7ehZex2tth3hGzgrxjxYFeR09BxpMQoik97QErwMcpv0G9hviQhge9Zs11AE6DCbxT+k96K9Qx8P8BvYbUk/BoxbKNNTxAYNJjBwTvQcPU6ijv9/AfsNXDzQNHnXEHw11LGQwb9bgQboPXkeJ38A+A0+oEP+1NdRRmTSWhJCpw9PX4nWc5Tewz8DrKsT/H3XUcYmxJGbX4UErhRvTaTfwXfGowWmxjjp2N5bwfMQDXRvJJze0GnhXPOo9tdQxqbFMA8A6PJhKoY6mVgPfFI9/Di11/B1TCbfX4kEN0GvgdexmNQBChfhb6KnjXoYSjqvHA9GwwqZ1PkPKX2CgoBD/ID11CHmGEo6lxwMhFa/jKJ8h7i8weI5HnQ/geur4u4ZScIoeDy6P13GNrxvCX4j7CzwJHn8zTXVkJ2om4Z6aPMiEUajjdv5C3F/go/D4QYamOmoGnsZIwjaaPIhEpFDHnfyFlL8wvACP/zhddfyqkYTv0eUBWMXrEALtBT5fIX6A1VXH1YwkOYYuD07C6zjcXmBgpRD/Z3XVARRNJFxDm6fTKhxB1V7gJfD4B2irY+mBBhLOqM2DpynUcaa1wHXx+EGlvjqWM5BwJ20eXFOhjh2sBb4KHv/O+uqYwEDCh2nzoBic4nUsYi0IlArxX6ivjnUNpJ5GT3fE6xjTWvoOM9NSiH9tXXWkgRLINI8Q7GwtotHm6Yx4HWDSWvoOIz7i8Zd11FPHmUfcPlTCAC2XCjW/9Hw9nj4LryN/aVvpOxSy8ah31FEHAE00hdGHn/p0p846PK1WqGOQn8B+Qlw0hUctxNDXUXzhfGp/VaO0DFz0SfSeHl+F17E520nvwUfvpv0WTlcsv29oONGfP05xGrmnjlm8jjnshHgWCYWo70NbR/qMF4UeIPqfzLYlsadCAV7HBXZCanM86kt/grSO3nuGShirpdt5q5N6GvENr+Pj97MSeA486l+g1Nx5kqQHQCbYfzvlvQXNpKdyu4ytBJ4Zj7qcTvPI4YA34CRUwnQtQvft6DwdKSYFzZkZ+QgpHyENjvCoxyXT/KrlQg+SM9f8wNJknjbBNS9mJX2HEypEvSSR5vu1mEwNb2i5PdljqK6FaxaKrKTvsL9CrLsQvaivE3qVqD2x2lTQeNoK1wwWrKTvsASP9SKiZxD0cc8So6HDMD1nE5kE+P5BykdKnx6P9Z4Umr/14YJP6F1iZ5PbUng6lYLmsSwE/hAe6xYEml/8HzyMbCbbFLv3FADdcM37WwgAlcRjHeJec3bSz/YwyNz+80bs3uexcc0r2Qc8lkKsU7nWfKej/YIwIRofKRb602hqEHSYcW+hWp7iUvPoDwghCf8gkXjdv3Tr80twzWWF1gGvhEczttsTuxPSfYTcCc7HIb8voWtbB3wiHs2i7jTfWyj0GcIwf4g7n1dX0DyLdfQdFg7Fo3mJK81vFFp9hqi/4mXufAYbuOZPWkff4Zy09xaqZtT39x2i/jaDK59FVbjmh1tH3+FeCrF+1oXmxzlmfYeYv+3mxudIPrjmer4B+wXcBo8VbLr555/xG2Rzbhde/U8FzaNGFQ/i3gPaF+Z3qWseNZrf9Rvkc311n0eIV0FzVljbaD35QTzCWytrfuQf+g3Y/BfKPn/7YENxzZe3DF6sECEwV9X8UaHd30js93JlnxvgmoVUuyCeSU0hwn+nqO8aQrnPkUgcmkFb1eeVcM3/3i6IP1Hhvj3UVdHnk1cs3fo0RZ/3V3hYbu38InOfIN4Ej1A0oKgv4osPEoYDJlfzeV4FfXvYRd/h2HiEXRWf9+ulfkgYrlFfyecHJHF9y1tF32E2oBseYcQLJX3ZJG7og0TNKYqVfL49rm8Cq+g7nEohwkzKKvpqRvVm/4LmDCNXxvUd7hev+D5R+hCFCA9Q0Pedjyuq9U/C5NNUfD4I1wf2bALeAo8QLKvoE/x9ENksv4KCz+Mo6DvTIuBaeIQrKujLYJz0P+SzWWZ4uM/bKejbwSLgJniEfXF9I8YMDk1dJgXGLsW5cJ/THXF9i1gEKyhEeCVU3zc/7p6mAmbnbNHS1FeiT+A+z4zrG9MeYKClEOECqL5OprLykcwACzYN/Ub04Bq4GRtCGK5vX3uA18cjBGfFmL5XVpkJ2Nkr+mA3i+5n5vuQEyswnzNyxvWBu0xwe+g7nM31swQUiOsZSce5u8fWlk1SqDbzbWgnzOcNFPRd1x76Ds/BI5wR0zePiey4edQ/A9Bxq6PP8aPORQbWll+N+PyVQ62J68vI1Rr6DieuwiN8FqKvvylLYuDCYOJaRycSd6tX67wzYrYPHG/TMF8I/IKIozwofMG4s23aOvfzoFXBbBNTXtnaToz43AzXJ0T4QubsC6WPpxBhtVzfGF1N4NhXL39+RW4d95bWu/ZGyVx9T/3Rx8i0DC/MrfdzI6u8/EMLTPhGtAXi80a4PqEtZQu9B7XxCJMPkOt7i/74p1mrd1qh3sIdpq+K1Qe2DtpOxReAeJwBTy6hajy5f+Atru9WXz2QLbSegEg8wrZyfQtpZ6kWAE+h3l1e37Aroq9qzyMWV/k9R8DVq6Xub3ZgAgDSOgBWQd/DbKHzqAMe1z5SfQ8YoJm5ZpgyujiBPIPBNkKWUCMUnLpEm8tdb8+rKGpu2eyklYBPm8OEdKE8X0i+u5NEjNo3jVml+b1OJ6nPeyvo628JANDH8biuJt+zRy/gbovo/8awTvuSay54+F4VUZJvCYa1Eg58ldRnsIXrKwkiDDlM9EIyfTO11Mornhn9W7+gKF/P0ll43KgzfB5+3PxafwoRNTeS+bwgrm96PyDlB6VnMFKIa5hEX7qDTpK3jvrmMWhPjd84wMXFUfcXcoT4rqP1h9BfcvUU1D5kCX2Hi+FxgUPZTVt7iE5aA4Ood5gbJTUgncdemOvB84UUrVtSfG4ksnNixPUl69tB36FQjMf1FIm+5gdq5BVPinr2AB1DchQueSHqUtdbdNNE7txWMmZS0DevHfQd3hiPSwiT6JtDIzfakJnrLxrqJ5F42c/ketAYHOh7BRy4ZeyoGIjru8wHSPkAXxjRfnhcGTnH6rtmN30sM5yZz1/KAHKl7DfHlMw80wBNHiDvLjfF9e1uA8SzklOIa4NYfSvri3qlYmY++eNq6NECOipz90UG86G2Ov4ydpyA62tgA6SAOx7X3b40/Bh98+rjCWlmfpRRp6DcbBgzr/AhbXUcVRwzLo/rKyu0AHhGPK6fitGX7qCXVqExRM0BUzHz5B/SVscZMT5nhVXQ96pghPz5AAlZHD1er22ZzJiOOvKwWcQ82+x3dNVVx+3bRfv8SAV9P2MBFLfG49o65l16W21/oeFRsicyjEvaRRXzfseprjr2j/H5Xri+SP+DH15AIa6To8fmupZJs9gt3U81irJBMV5lhXFca6rjwO7KT0xfqLCAvsMrKcQ1XdRop+eHRvlvfbfrYhCTLSm7phJddYwb7fPOuL57WUDf4cVYXJLfx6utaZmULS69C7jPcxyYwmsPkHr1BE113PEPony+UEGfQBr8fYegGI/r8OhXjZvqWSbJKyG1fckIMrJpCGpLZTP6ZnY8p7S0VLGXYVMVfaWljXa9eFnEq3YXaFrG/y/K5zkV9K3iedj7L3wvUv19/GdpepXYgqzeErU6ADGV5r3Bup5Xscf+TvTuuri+O3DQ9x7UT+JxLR/9n+thuXbajnEUPci8eia41/NNbOvo3bVxfSA58FtPxlKI6/yoY/XrARwO03ZFMDGDzqsP6HkPA3aj7kdrQ4VvdoHfebQ/HtfAdsxcCGb1vEV8HGG9JWp1VNJ5VbGjnm+KUbsSz4DrG9gu4OHd5XFJvhBfr4d9KOstUaujktC/Lcu1+LJVRc54poK+PQIeXg6P64QoNVqo15yy3hK1Oiop/Ztdzw+wZ+SMI5O4vuW9TsrrFE+GxRX9RhzI64m1P0W9yNB7TSDvdbRp+fxi7DQz3xTXN0HA9x2+SSGuVXLG9lroQltviVodlaT+PWIzUmLnyWpPJ+XwgO87fD0eQ34l8z/eTwcX7U1bb4laHZW0/kX80ED0rbM4CNd3YMD3HXbCY5hC220p3Zy43hK1OgRi4ruh30wDYfIA5hGwXYrr6+xxUh6HhTI8riWZa0axmQ5OLCaut0Stjgpi/+ZNUiGfM6rdmvLbBjopxzIazU0BmFO/p4Pk4tT1Cj9y6tB/gvsHayAcWhN5PP5HuL5IHwKdz4tkP5UnivH9D7uxjrd0veh/1UWtjg9T+7fCUHrCxF1ydlCrh2oRMoOceBYlNJpuAmUqnklHB633Jq93MbU6Pkzu3yc1kHj3dz5uivuiWkTjgYEZJ4h7cCoeF6p0vKO/Gn29i6nVUUHu3/EDyMmZGXSYV8jHb0hHgBMXEtBoMqnE4791qQbAdnf6epdTq2Nqev/Gp0DtmQmsiGpxCAQ4qROx4Zga/QFN20u30FBviVodlfT+FY5NT5i/CzPQQLUMCfC+w5qBh2LR3D0ef0wTDaw6XIMHJWp1VGrw794UKG01UYyeYcXbArzvcE70urreFU/NooFwLx0elKjVUanBv/SmOv70sZB5XEzLOgHedzgLFo2QrOmqoS4p1OFBiVodlTr8y2BIi+TslT87ENHSxNuwp+FPYtH8WYrPzKcnnEXugYF9h261NBL10SLpjjgL0zIdB3bvwfZINNd6BvMiGmhWLPfAwL5D11oyM6AnHFip0FZzcmDDWyHRCL7MvCo94ePkHpjVd0h10lulGt4nrcZ8yjSIlq0Dm+ZYND/OXK2BF40cjtQDI/sO3WtZV8P7pFJmngvRslFgN54BBSSaZsy8kuYHw2Vm36F7LcVtNXypnM+pTKqIlmZBDe+GRLM1c8+P0/P0Lxla6oGZfYcEWlbT8KWyRCq+07OxK6v0Minvgt9+2uR2zE+jjzCM9E3qgQF9h7pOcb0JvVf32ikeF4IQJacFdd/hg+TRXMDM+9BHuNmHZR6Y2ndIoaUNuVc5P1/HUw4hZAC7gO47HA4u5dH0Y35AGX2EXaUemNp3SKFluoHkJITIFHMz+RCCA7rv8AB5NN0qmYGNhq/gDWQeGNt3SKJlUQ1nL70x89xyLUKjl0l5GN5LHs2KzPxweoR2qQfe6zuUjdP0PMXkdySlWu4YzHAbeTQXMld2o38Bz2Ah88B7fYfy2YCa6MdYf7pcy8jRBzK8vTSasom17DTyg18/uMQD7/UdImNzckJwOCX6Q/cOgQyD9ZhoYv/1OvTfv4V/Mg8813eIjS8cwWBacudE6E1pWCSQiUQkj2Z8ZkDUkn4/YAezxAOT+w6JtAhx1ET/SzAi1TJPEMOZsNJoqvZmHkL/9u1wmQcm9x0SackmSU7YZDhzX6mWS4KY1OWl0XRg5rPIkd4AEKP7Dqm03IAM+TNzX1aqJb9nEPcdCinYI6Rfeig5TU6ReGB03yGVltlpidkgKw1WpVp6B3Hf4XUSyOP56k+O9KH+md13SKWlPjijJnxRmlmIkmoB9gHcd/itD59flsI5eu4b5LISD8zuOyTTcj1KYk+qNpVJQ6qllXdhzxLPJoCcYxxvfEdyzpF4YHjfIZmWJckJL845ddaXye/MQvD2HgAL6ahmzqRCTji3xAPD+w7JtABIEy1XMC/kyGRcFLww8JENsF3IqUh+5CQnjPXA9L5DOi1PoCbnEsbjKWAuFbJL4MKgSjYacir+hxovAtPrfYex4xByEhm5pLj+QOl+G4ELS7d+/vWcU0klJ5w91gOv9x1KRvGx1CSEQmY+XDYWCVxWl1k+8FbxeEYe5FR1jvXA432H0vkBahLlAMr8EtkQsj1Lyqvw2bLhaInH40IJ+Qe394z1wKy+Q82eTkVN1C1oaS/T8pnA7Tt8iczyH4vHr9iaEORfp+Le7jvE5r8l/8lpW+Y02JQebC9o+w63Qa4uCigTgvzrVNwDfYeUWiJ+kf/k1IyZN5JpySIetH2H88luRGPdFE9ATThzrAeG9R0accc0aP0bhuxcMr5XSXmVCnAtiaEgxTw2NeFqMR54oe+QUkuja5G/dwL2zJNLn1FssMLny2KIeMo8a5Ka5AoxHnih75BUy+XIv3luxMyyR2H62mCFgZUshlcxX0hN+KBYD7zQd0iqBWDJv3leJc18OYmWjulAhZeQxLAwM+9OTXjXGA880XdIqgVAOpJ/+TyJub/0foYFKrygJIZlmPn21ITLxnjgib5DWi0Hk3/5gKfMnxvJmhItEwUqDLYkMZzBPIycATEPdc8bfYe0WoAFuX8rcioudEm0HBGo7C2JIdmZeXxtTwPbT/oOOWoc2Y3av/Kcx1od8Uei5eBA7TsEWEkMYzPzRtRxhRn0Yjzwk77DmLkOtX+J+8TjmZRk2yf6et8hQF/Y97yoKcTmzvNipwstM0tiaMWc7kod1/w5D3whM0212ii1lKrVdoLGOnIniDqFGTynJvGv46kaoJPFjnzieoWwiI/ZSd3PP/oOm2+h8+xd7808J4lm/Ld0d1X7Gd/rWs5mnolcs1CXYl5HY72rjmPGK5EJXKGt1riGMR9Drvml8dSNyn2IcAnm9ABqzb/5XuZt9d4CQwD2hd6DM+tpjQscMPPldNz2UaDgR4RgNLf9mFzzNZnP0FtvK19oPVlQb1ybMvM9qTW/7NsHY27jJ8jm5MxDyDUvxAzkNNe7gw/wl5rj2p6ZV9XRsAUGfYlwfOZZyDX3Y95Sc72b+kDjWUPNcR2cM55Orfky5r2TvkQ4G6fin6HWvD7zdLrrBVze7zu8s2bbFmVmsE+t+U3MU/sT4UXPiMeFCGrNczNX6q53du2k9L9znUyPbcjf/T6xZrDCzA197LkB3oxa8xE5f6e73k96v+9Qt22/ypz6DLHmXswMFnyKxOXjqQh0S2LNLZjn1F1vHe/3Heq2bT5OxYUGYs1TM0/uVySEshTz6cSaF2IGSrrrreP9vkPdtoGLZ8TjkQJpNSc7M/fwKxKDN2buS6x5GPOjddcrhGonpR3WHtdImOPx9Wg1j83M2/gVifAFzE1pNQ8w4RlMneN5WHtcfxRP/Qit5m2ZeSvfInf7MAAtJ9W8cs4o1V3vOZ6HtcclxKSYm5Fq/kvmqfyKmF+GXZlU8+bM/9BxrbveczxPSntcN2bmR5GeC3Ah88U+ReyvwwATSs1lRzJ/Snu953ieuP64BjHvDW4JNU/LzGDMn5D8HDllE0LN12NOCdXa663jeeL649qdmTei01zUmbm9PyG9RaIH0WlOLs6p0aI4VHu9dTxPXH9c5fWZH1ZApnkLZgaZvoR8B50N+5Bp7sKpeKT/+uut4/2+QwPiupiZt6XS3GQMZsDY0qeQ3lW6y6g0D3xjKv7IwfrrreP9vkMD4ppsb+b6YJ5IMzBn5mX8jTDZm/nbBzueSPP6uc8p3oB663i/79CEuBoy82lFJJonYeamSb9C0ggwYpBU/L+9jETzu54Rjz/ihgbUW0c7rB02Iq6TmbkFhb4dezL3BLN+BDYj3sfj8czUuhHoO7ZmFDlbbzq6NdcrG97uPTAirq1mZU691L2+ZrMy86v9j8TRNRKNp3infNf6Fq6BKx6PCz+NqLeO52Ez4uqQDUjF4090q2/TXPb3QRKJe42EgZmnHuhS31IjYIvH45lptDSi3jqehw2JS0jLvYkrk07mSt+KAMHMALum/5E7Qc/SzNy0iSt9oGOkGHNyy0pmMjPqreN52JS4hOSdUszXLFXXV3Rumpkb/6Y/EoZPqc/MZx6uri//4m9+3Hg8np1wH0PqreN52Ji4hPxMcGYGUPBW9at1xXfkVjj1oX5JGL7hTGZOA6sBivqe8su5uf2FZqRDOyn9P7eaE1eDqEs/6r5+E1xf1Yrj5SoCkGn380diDisQZVVP8PRFCvouWCVqj6LDqoypt44/9R1q0gKOl4+qo+K2DZvI9OWDjkUmj5IDGDsk/JMov9q0y3XrGZnUhbh7SfWVHveOqNxGiV7+jIQCqe9Qm5Z7to8upWbgtustJoQJqV0abntZ0+OjldTvO9Qvkc2jTo7J6Lmv3/pyIKXLebee4S+bx1w6++8Nltfr+32Hhn21jrmsWm31H3VR6JdgbzAyKas9n5CPZuR6Laxe3+87BAd9/jR39pFPrVq2nzoDAq3tlnPUU6vNH7UIvc8bLTLGRg3ci/0f02qL5KMdBg==;" vertex="1" parent="1">
          <mxGeometry x="450" y="90" width="260" height="260" as="geometry" />
        </mxCell>
        <mxCell id="zEiVbw1pWRCzabLosEF_-2" value="REAL GYM" style="text;html=1;strokeColor=none;fillColor=none;align=center;verticalAlign=middle;whiteSpace=wrap;rounded=0;fontFamily=Georgia;fontStyle=1;fontSize=53;" vertex="1" parent="1">
          <mxGeometry x="150" y="90" width="330" height="130" as="geometry" />
        </mxCell>
        <mxCell id="zEiVbw1pWRCzabLosEF_-3" value="Smart Workout System" style="text;html=1;strokeColor=none;fillColor=none;align=center;verticalAlign=middle;whiteSpace=wrap;rounded=0;fontFamily=Georgia;fontSize=37;" vertex="1" parent="1">
          <mxGeometry x="160" y="240" width="290" height="10" as="geometry" />
        </mxCell>
      </root>
    </mxGraphModel>
  </diagram>
</mxfile>
